<?xml version="1.0" encoding="utf-8"?>
<!-- Generator: Adobe Illustrator 27.9.3, SVG Export Plug-In . SVG Version: 9.03 Build 53313)  -->
<svg version="1.1" id="Layer_1" xmlns="http://www.w3.org/2000/svg" xmlns:xlink="http://www.w3.org/1999/xlink" x="0px" y="0px"
	 viewBox="0 0 143 45" style="enable-background:new 0 0 143 45;" xml:space="preserve">
<style type="text/css">
	.st0{fill-rule:evenodd;clip-rule:evenodd;fill:url(#SVGID_1_);}
	.st1{fill-rule:evenodd;clip-rule:evenodd;fill:url(#SVGID_00000102528298463952066230000005775997717729052592_);}
	.st2{fill-rule:evenodd;clip-rule:evenodd;fill:url(#SVGID_00000049201870912733726420000015245569064019922343_);}
	.st3{fill-rule:evenodd;clip-rule:evenodd;fill:url(#SVGID_00000049224150159355567240000001258967416760999298_);}
	.st4{fill-rule:evenodd;clip-rule:evenodd;fill:url(#SVGID_00000130622017293733434510000003429077891972993198_);}
	.st5{fill-rule:evenodd;clip-rule:evenodd;fill:url(#SVGID_00000021820275192987257460000015149336335521958791_);}
	.st6{fill:#F5FFFF;}
	.st7{fill:none;}
</style>
<linearGradient id="SVGID_1_" gradientUnits="userSpaceOnUse" x1="16.15" y1="550.4865" x2="16.15" y2="517.893" gradientTransform="matrix(1 0 0 1 0 -514)">
	<stop  offset="0" style="stop-color:#FFC107"/>
	<stop  offset="0.4926" style="stop-color:#FFC107"/>
	<stop  offset="1" style="stop-color:#FF589B"/>
</linearGradient>
<path class="st0" d="M19.7,21.9l-2.2-11.2c-0.3-1.7-0.7-3-1.5-4c-3-3.1-6,0.2-7.6,3.4c2,6.4,3.9,13.4,5.8,19.8
	c0.7,2.3,2.5,3.3,4.7,2.3c0.9-0.4,2.3-1.2,3.1-1.8c1-0.7,1.5-1.2,1.9-2.1c-0.8,1.3-2.8,1.1-3.2-0.8L19.7,21.9z"/>
<linearGradient id="SVGID_00000081625485727369458410000004589416129265250960_" gradientUnits="userSpaceOnUse" x1="6.9" y1="514.4529" x2="6.9" y2="563.6404" gradientTransform="matrix(1 0 0 1 0 -514)">
	<stop  offset="0" style="stop-color:#FFC107"/>
	<stop  offset="0.3387" style="stop-color:#5EE4C6"/>
	<stop  offset="0.6882" style="stop-color:#5EE4C6"/>
	<stop  offset="0.9892" style="stop-color:#FFC107"/>
</linearGradient>
<path style="fill-rule:evenodd;clip-rule:evenodd;fill:url(#SVGID_00000081625485727369458410000004589416129265250960_);" d="
	M9,32.2C6.8,26.6,1.3,11.5,0.4,4C0.3,2.9,0.3,1.7,1.1,0.8c-0.7,0.7-1,1.7-1,3v32.3c0,3.3,2.3,4.7,5.4,3.3c1.9-0.8,4.9-2.4,8.2-4.2
	C10.9,36.4,9.8,34.3,9,32.2z"/>
<linearGradient id="SVGID_00000149350946561710524850000016645541757155040388_" gradientUnits="userSpaceOnUse" x1="8.134" y1="514.5892" x2="8.134" y2="535.3695" gradientTransform="matrix(1 0 0 1 0 -514)">
	<stop  offset="0" style="stop-color:#FF589B"/>
	<stop  offset="0.4926" style="stop-color:#FF589B"/>
	<stop  offset="1" style="stop-color:#971147"/>
</linearGradient>
<path style="fill-rule:evenodd;clip-rule:evenodd;fill:url(#SVGID_00000149350946561710524850000016645541757155040388_);" d="
	M16,6.7c-0.5-0.7-1.3-1.4-2.4-2c-3.3-1.8-6.3-3.4-8.2-4.2C3.6-0.3,2.1-0.1,1.1,0.8C0.3,1.7,0.2,2.9,0.3,4C0.8,7.6,2.1,13.1,4,18.3
	c1.3-2.5,4-8.4,6.4-11C12,5.7,14.2,4.9,16,6.7z"/>
<linearGradient id="SVGID_00000175310739979219895840000007062166406177217953_" gradientUnits="userSpaceOnUse" x1="29.9375" y1="544.7078" x2="29.9375" y2="522.4467" gradientTransform="matrix(1 0 0 1 0 -514)">
	<stop  offset="0" style="stop-color:#FFCE86"/>
	<stop  offset="0.5161" style="stop-color:#FF4F9D"/>
	<stop  offset="1" style="stop-color:#9E194F"/>
</linearGradient>
<path style="fill-rule:evenodd;clip-rule:evenodd;fill:url(#SVGID_00000175310739979219895840000007062166406177217953_);" d="
	M25.6,12.4c2.2,3.1,4.8,11.8,2.5,14.5c2.8-1.7,5-3.1,6.1-4c2.1-1.8,2.1-3.9,0-5.7c-1.4-1-4.4-3-8.1-5.2c-0.7-0.4-1.4-0.6-2-0.4
	C24.8,11.4,25.2,11.8,25.6,12.4z"/>
<linearGradient id="SVGID_00000179615012082665916330000003050313928797290397_" gradientUnits="userSpaceOnUse" x1="23.95" y1="547.8939" x2="23.95" y2="522.0077" gradientTransform="matrix(1 0 0 1 0 -514)">
	<stop  offset="0" style="stop-color:#FFCE86"/>
	<stop  offset="0.5161" style="stop-color:#FF4F9D"/>
	<stop  offset="1" style="stop-color:#9E194F"/>
</linearGradient>
<path style="fill-rule:evenodd;clip-rule:evenodd;fill:url(#SVGID_00000179615012082665916330000003050313928797290397_);" d="
	M20.4,19.8l-0.7,2.1l0.9,5.9c0.4,1.8,2.5,2.1,3.4,0.5c0.1-0.2,0.3-0.5,0.4-0.8l3.7-8.6l0.1-0.2C28,17.3,26.3,11,24,11.5
	c-0.6,0.2-1,0.6-1.3,1.5L20.4,19.8z"/>
<linearGradient id="SVGID_00000091712277811589433220000016491508660692643494_" gradientUnits="userSpaceOnUse" x1="10" y1="516.1356" x2="10" y2="537.9373" gradientTransform="matrix(1 0 0 1 0 -514)">
	<stop  offset="0" style="stop-color:#FF85FF"/>
	<stop  offset="0.4926" style="stop-color:#9400B7"/>
	<stop  offset="1" style="stop-color:#5A00A1"/>
</linearGradient>
<path style="fill-rule:evenodd;clip-rule:evenodd;fill:url(#SVGID_00000091712277811589433220000016491508660692643494_);" d="
	M15.4,6c-1.7-1.4-3.9-0.7-5.3,0.8c-0.7,0.8-1.4,1.9-2,2.9c-1.5,2.8-2.8,5.7-4.1,8.6c0.9-1.8,2.6-5.4,4.4-8.2c0.2-0.4,0.5-0.7,0.7-1
	c0.5-0.7,0.9-1.3,1.4-1.8c0.8-0.9,1.9-1.6,3-1.6c0.9-0.1,1.7,0.2,2.5,1C15.8,6.5,15.6,6.2,15.4,6z"/>
<g>
	<g>
		<path class="st6" d="M48.5,37c-1.7,0-3.1-0.4-4.5-1.2s-2.6-1.8-3.7-3.2c-1.1-1.4-1.9-3-2.5-4.8C37.2,26,37,24.1,37,22
			s0.2-4.1,0.8-5.8c0.6-1.8,1.4-3.4,2.5-4.8S42.6,9,44,8.2C45.4,7.5,46.9,7,48.5,7c1.5,0,2.9,0.3,3.9,0.8c1.1,0.4,2.3,1.3,3.3,2.4
			c0.1,0.2,0.2,0.3,0.4,0.4c0.1,0.2,0.1,0.3,0.1,0.5s0,0.3,0,0.6c0,0.4-0.1,0.9-0.4,1.2c-0.2,0.3-0.6,0.5-1,0.5
			c-0.4,0-0.7-0.2-1.1-0.5c-0.7-0.8-1.5-1.3-2.3-1.8c-0.8-0.5-1.8-0.6-3.1-0.6c-1.2,0-2.3,0.3-3.3,0.9c-1.1,0.6-1.9,1.5-2.7,2.5
			c-0.8,1.1-1.4,2.3-1.8,3.6c-0.5,1.3-0.6,2.8-0.6,4.5c0,1.6,0.2,3.1,0.6,4.5c0.5,1.3,1.1,2.6,1.8,3.6c0.8,1.1,1.7,1.8,2.7,2.4
			c1.1,0.6,2.1,0.9,3.3,0.9c1.1,0,2-0.2,2.9-0.6c1-0.4,1.8-1,2.6-1.8c0.4-0.3,0.7-0.4,1.1-0.4s0.6,0.1,0.8,0.4
			c0.2,0.3,0.4,0.8,0.4,1.3c0,0.3,0,0.5-0.1,0.8c-0.1,0.3-0.2,0.5-0.4,0.6c-1.1,1.1-2.1,2-3.4,2.4C51.3,36.7,50,37,48.5,37z
			 M56.4,32.3l-3-0.7v-6.8h-4c-0.5,0-0.8-0.2-1.1-0.4c-0.2-0.3-0.5-0.8-0.5-1.2s0.1-0.9,0.5-1.2c0.4-0.3,0.7-0.4,1.1-0.4H55
			c0.5,0,0.8,0.1,1.1,0.6c0.2,0.3,0.5,0.9,0.5,1.4v8.8H56.4z"/>
		<path class="st6" d="M63.5,36.7c-0.5,0-0.8-0.2-1.1-0.6c-0.2-0.4-0.5-0.9-0.5-1.3V9.3c0-0.6,0.1-1,0.5-1.3
			c0.2-0.3,0.7-0.6,1.1-0.6H77c0.5,0,0.8,0.2,1.1,0.5c0.2,0.3,0.4,0.8,0.4,1.3c0,0.4-0.1,0.9-0.4,1.2c-0.2,0.3-0.6,0.5-1.1,0.5H65.1
			v9.1h8.6c0.5,0,0.8,0.1,1.1,0.4c0.2,0.3,0.4,0.8,0.4,1.3c0,0.6-0.1,0.9-0.4,1.4c-0.2,0.3-0.6,0.4-1.1,0.4h-8.6v9.6H77
			c0.5,0,0.8,0.2,1.1,0.5c0.2,0.3,0.4,0.8,0.4,1.3S78.3,36,78,36.2c-0.2,0.3-0.6,0.5-1.1,0.5C77,36.7,63.5,36.7,63.5,36.7z"/>
		<path class="st6" d="M94.3,37c-1.8,0-3.3-0.3-4.8-1c-1.4-0.8-2.7-1.8-3.7-3.2c-1-1.4-1.9-3-2.4-4.8c-0.6-1.8-0.8-3.9-0.8-6
			s0.2-4.2,0.8-6s1.4-3.4,2.4-4.8c1-1.3,2.3-2.4,3.7-3.1c1.4-0.7,3.1-1,4.8-1c1.8,0,3.3,0.3,4.8,1c1.4,0.8,2.7,1.8,3.7,3.2
			c1,1.4,1.9,2.8,2.4,4.8s0.8,3.9,0.8,6s-0.2,4.2-0.8,6c-0.6,1.8-1.4,3.4-2.4,4.8c-1,1.4-2.3,2.4-3.7,3.1C97.7,36.7,96.1,37,94.3,37
			z M94.3,33.5c1.3,0,2.5-0.3,3.6-0.9c1.1-0.6,2-1.3,2.9-2.4c0.8-1.1,1.4-2.2,1.8-3.6c0.4-1.3,0.6-2.8,0.6-4.5
			c0-1.6-0.2-3.1-0.6-4.5c-0.4-1.3-1.1-2.6-1.8-3.6c-0.8-1-1.8-1.8-2.9-2.4c-1.1-0.6-2.3-0.9-3.6-0.9c-1.3,0-2.5,0.3-3.6,0.9
			c-1.1,0.6-2,1.3-2.7,2.4s-1.4,2.2-1.8,3.6c-0.5,1.4-0.7,2.9-0.7,4.5c0,1.7,0.2,3.2,0.7,4.5c0.5,1.4,1.1,2.6,1.8,3.6
			c0.7,1,1.7,1.8,2.7,2.4C91.8,33.2,93,33.5,94.3,33.5z"/>
		<path class="st6" d="M113.2,36.7c-0.5,0-0.8-0.2-1.1-0.6c-0.2-0.4-0.5-0.9-0.5-1.3V9.3c0-0.6,0.1-1,0.5-1.3
			c0.2-0.3,0.7-0.6,1.1-0.6c0.6,0,1.1,0.3,1.4,1l9.3,23.5h-1l9-23.5c0.4-0.8,0.8-1,1.4-1c0.5,0,0.8,0.2,1.1,0.6
			c0.2,0.3,0.5,0.9,0.5,1.3v25.3c0,0.6-0.1,1.1-0.5,1.4c-0.4,0.3-0.7,0.6-1.1,0.6c-0.5,0-0.8-0.2-1.1-0.6c-0.2-0.5-0.5-0.9-0.5-1.4
			V14.7l0.6-0.2l-7.8,20.1c-0.4,0.6-0.8,1.1-1.3,1.1c-0.7,0-1.2-0.5-1.4-1.2L114.2,15l0.6-0.2v20c0,0.6-0.1,1-0.5,1.3
			C113.9,36.4,113.7,36.7,113.2,36.7z"/>
	</g>
</g>
<rect x="213.8" y="-22.3" class="st7" width="4.7" height="2.4"/>
</svg>
